<svg id="svg" version="1.1" xmlns="http://www.w3.org/2000/svg" xmlns:xlink="http://www.w3.org/1999/xlink" width="400" height="225" viewBox="0, 0, 400,225"><g id="svgg"><path id="path0" d="M0.000 82.708 L 0.000 85.417 48.542 85.417 C 75.240 85.417,97.084 85.346,97.085 85.260 C 97.085 85.174,97.272 84.026,97.500 82.708 C 97.728 81.391,97.915 80.242,97.915 80.156 C 97.916 80.070,75.885 80.000,48.958 80.000 L 0.000 80.000 0.000 82.708 M0.000 105.313 L 0.000 107.917 46.624 107.917 L 93.249 107.917 93.669 105.313 L 94.090 102.708 47.045 102.708 L 0.000 102.708 0.000 105.313 " stroke="none" fill="#ace4dc" fill-rule="evenodd"></path><path id="path1" d="M0.000 93.958 L 0.000 96.667 47.604 96.667 C 73.786 96.667,95.208 96.589,95.208 96.494 C 95.208 96.398,95.394 95.297,95.622 94.046 C 95.849 92.795,96.037 91.654,96.039 91.510 C 96.041 91.303,86.300 91.250,48.021 91.250 L 0.000 91.250 0.000 93.958 " stroke="none" fill="#64dccc" fill-rule="evenodd"></path><path id="path2" d="M0.000 71.458 L 0.000 74.167 49.688 74.167 L 99.375 74.167 99.379 73.490 C 99.381 73.117,99.521 71.969,99.690 70.938 C 99.860 69.906,99.999 68.992,99.999 68.906 C 100.000 68.820,77.500 68.750,50.000 68.750 L 0.000 68.750 0.000 71.458 M93.337 107.552 C 93.334 107.831,93.493 107.910,94.010 107.888 C 94.584 107.864,94.608 107.845,94.167 107.763 C 93.880 107.710,93.577 107.559,93.493 107.427 C 93.394 107.273,93.339 107.318,93.337 107.552 M0.000 116.458 L 0.000 119.167 46.302 119.138 C 71.768 119.123,92.385 119.068,92.118 119.017 C 91.580 118.915,91.582 118.771,92.170 115.260 L 92.423 113.750 46.212 113.750 L 0.000 113.750 0.000 116.458 " stroke="none" fill="#dcecec" fill-rule="evenodd"></path><path id="path3" d="" stroke="none" fill="#b8ece4" fill-rule="evenodd"></path><path id="path4" d="" stroke="none" fill="#ccece4" fill-rule="evenodd"></path></g></svg>